<mxfile host="app.diagrams.net" modified="2022-06-23T00:56:58.133Z" agent="5.0 (Windows)" etag="JV_BVJxe9RvJLFrIz_HD" version="20.0.3" type="github">
  <diagram id="K0o0jhx-SNK4bHOGCNAz" name="Page-1">
    <mxGraphModel dx="1422" dy="744" grid="1" gridSize="10" guides="1" tooltips="1" connect="1" arrows="1" fold="1" page="1" pageScale="1" pageWidth="1100" pageHeight="850" math="0" shadow="0">
      <root>
        <mxCell id="0" />
        <mxCell id="1" parent="0" />
        <mxCell id="64v3DnVX_QihMCU26TA5-13" value="Application" style="shape=module;align=left;spacingLeft=20;align=center;verticalAlign=top;" vertex="1" parent="1">
          <mxGeometry x="190" y="40" width="690" height="520" as="geometry" />
        </mxCell>
        <mxCell id="X13s5hJ5W_4LY24NtN4I-2" value="Coordonnateur" style="shape=module;align=left;spacingLeft=20;align=center;verticalAlign=top;fontSize=12;fillColor=#FFFFFF;" parent="1" vertex="1">
          <mxGeometry x="40" y="200" width="130" height="40" as="geometry" />
        </mxCell>
        <mxCell id="X13s5hJ5W_4LY24NtN4I-3" value="Facade" style="html=1;fontSize=12;fillColor=#FFFFFF;" parent="1" vertex="1">
          <mxGeometry x="250" y="200" width="120" height="40" as="geometry" />
        </mxCell>
        <mxCell id="X13s5hJ5W_4LY24NtN4I-4" value="" style="endArrow=none;html=1;rounded=0;fontSize=12;exitX=1;exitY=0.5;exitDx=0;exitDy=0;entryX=0;entryY=0.5;entryDx=0;entryDy=0;" parent="1" source="X13s5hJ5W_4LY24NtN4I-2" target="X13s5hJ5W_4LY24NtN4I-3" edge="1">
          <mxGeometry width="50" height="50" relative="1" as="geometry">
            <mxPoint x="490" y="140" as="sourcePoint" />
            <mxPoint x="540" y="90" as="targetPoint" />
          </mxGeometry>
        </mxCell>
        <mxCell id="X13s5hJ5W_4LY24NtN4I-5" value="" style="endArrow=open;endFill=1;endSize=12;html=1;rounded=0;fontSize=12;" parent="1" edge="1">
          <mxGeometry width="160" relative="1" as="geometry">
            <mxPoint x="170" y="260" as="sourcePoint" />
            <mxPoint x="230" y="260" as="targetPoint" />
          </mxGeometry>
        </mxCell>
        <mxCell id="X13s5hJ5W_4LY24NtN4I-6" value="1: assignerUsagerTech(usagerDTO : CompteUsagerTechDTO, projetDTO : ProjetDTO)" style="edgeLabel;html=1;align=center;verticalAlign=middle;resizable=0;points=[];fontSize=11;" parent="X13s5hJ5W_4LY24NtN4I-5" connectable="0" vertex="1">
          <mxGeometry x="0.3" y="1" relative="1" as="geometry">
            <mxPoint x="21" y="21" as="offset" />
          </mxGeometry>
        </mxCell>
        <mxCell id="X13s5hJ5W_4LY24NtN4I-8" value="" style="endArrow=open;endFill=1;endSize=12;html=1;rounded=0;fontSize=12;startArrow=none;" parent="1" edge="1">
          <mxGeometry width="160" relative="1" as="geometry">
            <mxPoint x="450" y="210" as="sourcePoint" />
            <mxPoint x="550" y="210" as="targetPoint" />
          </mxGeometry>
        </mxCell>
        <mxCell id="X13s5hJ5W_4LY24NtN4I-9" value="2.2: usagerAAssigne := trouverUsagerTech(idUsager : int)" style="edgeLabel;html=1;align=center;verticalAlign=middle;resizable=0;points=[];fontSize=11;" parent="X13s5hJ5W_4LY24NtN4I-8" connectable="0" vertex="1">
          <mxGeometry x="0.4" y="1" relative="1" as="geometry">
            <mxPoint x="70" y="-22" as="offset" />
          </mxGeometry>
        </mxCell>
        <mxCell id="X13s5hJ5W_4LY24NtN4I-11" value="RegistreProjet" style="html=1;fontSize=12;fillColor=#CCCCCC;" parent="1" vertex="1">
          <mxGeometry x="640" y="400" width="120" height="40" as="geometry" />
        </mxCell>
        <mxCell id="X13s5hJ5W_4LY24NtN4I-12" value="" style="endArrow=open;endFill=1;endSize=12;html=1;rounded=0;fontSize=12;" parent="1" edge="1">
          <mxGeometry width="160" relative="1" as="geometry">
            <mxPoint x="390" y="250" as="sourcePoint" />
            <mxPoint x="610" y="420" as="targetPoint" />
          </mxGeometry>
        </mxCell>
        <mxCell id="X13s5hJ5W_4LY24NtN4I-13" value="3.1: projetAAssigner := trouverProjet(idProjet : int)" style="edgeLabel;html=1;align=center;verticalAlign=middle;resizable=0;points=[];fontSize=11;" parent="X13s5hJ5W_4LY24NtN4I-12" connectable="0" vertex="1">
          <mxGeometry x="0.3405" y="-2" relative="1" as="geometry">
            <mxPoint x="34" y="-5" as="offset" />
          </mxGeometry>
        </mxCell>
        <mxCell id="X13s5hJ5W_4LY24NtN4I-15" value="&lt;div&gt;projetAAssigne:&lt;/div&gt;&lt;div&gt;Projet&lt;br&gt;&lt;/div&gt;" style="html=1;fontSize=12;fillColor=#CCCCCC;" parent="1" vertex="1">
          <mxGeometry x="250" y="470" width="120" height="80" as="geometry" />
        </mxCell>
        <mxCell id="X13s5hJ5W_4LY24NtN4I-16" value="" style="endArrow=none;html=1;rounded=0;fontSize=12;entryX=0.5;entryY=1;entryDx=0;entryDy=0;exitX=0.5;exitY=0;exitDx=0;exitDy=0;" parent="1" source="X13s5hJ5W_4LY24NtN4I-15" target="X13s5hJ5W_4LY24NtN4I-3" edge="1">
          <mxGeometry width="50" height="50" relative="1" as="geometry">
            <mxPoint x="490" y="170" as="sourcePoint" />
            <mxPoint x="540" y="120" as="targetPoint" />
          </mxGeometry>
        </mxCell>
        <mxCell id="X13s5hJ5W_4LY24NtN4I-17" value="" style="endArrow=open;endFill=1;endSize=12;html=1;rounded=0;fontSize=12;" parent="1" edge="1">
          <mxGeometry width="160" relative="1" as="geometry">
            <mxPoint x="290" y="290" as="sourcePoint" />
            <mxPoint x="290" y="450" as="targetPoint" />
            <Array as="points">
              <mxPoint x="290" y="330" />
            </Array>
          </mxGeometry>
        </mxCell>
        <mxCell id="X13s5hJ5W_4LY24NtN4I-18" value="4: ajouterUsagerAuRegistre(usagerAAssigner : CompteUsagerTech)" style="text;html=1;align=center;verticalAlign=middle;resizable=0;points=[];autosize=1;strokeColor=none;fillColor=none;fontSize=11;" parent="1" vertex="1">
          <mxGeometry x="160" y="390" width="350" height="20" as="geometry" />
        </mxCell>
        <mxCell id="64v3DnVX_QihMCU26TA5-1" value="" style="endArrow=none;html=1;rounded=0;entryX=0;entryY=0.5;entryDx=0;entryDy=0;exitX=1;exitY=0.5;exitDx=0;exitDy=0;" edge="1" parent="1" source="X13s5hJ5W_4LY24NtN4I-3" target="X13s5hJ5W_4LY24NtN4I-7">
          <mxGeometry width="50" height="50" relative="1" as="geometry">
            <mxPoint x="500" y="410" as="sourcePoint" />
            <mxPoint x="550" y="360" as="targetPoint" />
          </mxGeometry>
        </mxCell>
        <mxCell id="64v3DnVX_QihMCU26TA5-2" value="CompteUsagerTechDTO : usagerDTO" style="html=1;" vertex="1" parent="1">
          <mxGeometry x="520" y="120" width="240" height="40" as="geometry" />
        </mxCell>
        <mxCell id="64v3DnVX_QihMCU26TA5-3" value="" style="endArrow=none;html=1;rounded=0;entryX=0;entryY=0.5;entryDx=0;entryDy=0;exitX=1;exitY=0.5;exitDx=0;exitDy=0;" edge="1" parent="1" source="X13s5hJ5W_4LY24NtN4I-3" target="64v3DnVX_QihMCU26TA5-2">
          <mxGeometry width="50" height="50" relative="1" as="geometry">
            <mxPoint x="500" y="410" as="sourcePoint" />
            <mxPoint x="550" y="360" as="targetPoint" />
          </mxGeometry>
        </mxCell>
        <mxCell id="X13s5hJ5W_4LY24NtN4I-7" value="RegistreUsagerTech" style="html=1;fontSize=12;fillColor=#CCCCCC;" parent="1" vertex="1">
          <mxGeometry x="600" y="200" width="120" height="40" as="geometry" />
        </mxCell>
        <mxCell id="64v3DnVX_QihMCU26TA5-6" value="" style="endArrow=open;endFill=1;endSize=12;html=1;rounded=0;fontSize=12;" edge="1" parent="1">
          <mxGeometry width="160" relative="1" as="geometry">
            <mxPoint x="390" y="190" as="sourcePoint" />
            <mxPoint x="500" y="130" as="targetPoint" />
            <Array as="points" />
          </mxGeometry>
        </mxCell>
        <mxCell id="64v3DnVX_QihMCU26TA5-7" value="2.1: idUsager := getIdUsager() : int" style="edgeLabel;html=1;align=center;verticalAlign=middle;resizable=0;points=[];fontSize=11;" connectable="0" vertex="1" parent="64v3DnVX_QihMCU26TA5-6">
          <mxGeometry x="0.3405" y="-2" relative="1" as="geometry">
            <mxPoint x="-65" y="-2" as="offset" />
          </mxGeometry>
        </mxCell>
        <mxCell id="64v3DnVX_QihMCU26TA5-8" value="ProjetDTO : projetDTO" style="html=1;" vertex="1" parent="1">
          <mxGeometry x="630" y="280" width="130" height="40" as="geometry" />
        </mxCell>
        <mxCell id="64v3DnVX_QihMCU26TA5-9" value="" style="endArrow=none;html=1;rounded=0;entryX=0;entryY=0.5;entryDx=0;entryDy=0;exitX=1;exitY=0.5;exitDx=0;exitDy=0;" edge="1" parent="1" source="X13s5hJ5W_4LY24NtN4I-3" target="64v3DnVX_QihMCU26TA5-8">
          <mxGeometry width="50" height="50" relative="1" as="geometry">
            <mxPoint x="500" y="410" as="sourcePoint" />
            <mxPoint x="550" y="360" as="targetPoint" />
          </mxGeometry>
        </mxCell>
        <mxCell id="64v3DnVX_QihMCU26TA5-10" value="" style="endArrow=open;endFill=1;endSize=12;html=1;rounded=0;fontSize=12;" edge="1" parent="1">
          <mxGeometry width="160" relative="1" as="geometry">
            <mxPoint x="420" y="240" as="sourcePoint" />
            <mxPoint x="600" y="300" as="targetPoint" />
          </mxGeometry>
        </mxCell>
        <mxCell id="64v3DnVX_QihMCU26TA5-11" value="3.1: idProjet := getIdProjet() : int" style="edgeLabel;html=1;align=center;verticalAlign=middle;resizable=0;points=[];fontSize=11;" connectable="0" vertex="1" parent="64v3DnVX_QihMCU26TA5-10">
          <mxGeometry x="0.3405" y="-2" relative="1" as="geometry">
            <mxPoint x="40" y="-32" as="offset" />
          </mxGeometry>
        </mxCell>
        <mxCell id="64v3DnVX_QihMCU26TA5-12" value="" style="endArrow=none;html=1;rounded=0;entryX=1;entryY=0.5;entryDx=0;entryDy=0;exitX=0;exitY=0.5;exitDx=0;exitDy=0;" edge="1" parent="1" source="X13s5hJ5W_4LY24NtN4I-11" target="X13s5hJ5W_4LY24NtN4I-3">
          <mxGeometry width="50" height="50" relative="1" as="geometry">
            <mxPoint x="500" y="410" as="sourcePoint" />
            <mxPoint x="550" y="360" as="targetPoint" />
          </mxGeometry>
        </mxCell>
      </root>
    </mxGraphModel>
  </diagram>
</mxfile>
